<svg class="hidden sm:inline" width="33.333" height="33.333" fill="none" version="1.1" viewBox="0 0 33.333 40" xmlns="http://www.w3.org/2000/svg">
<g transform="translate(-5.8333 -4)" clip-path="url(#fahpw200aa)">
<path d="m11.363 4a8.863 8.863 0 0 0-8.863 8.863v22.274a8.863 8.863 0 0 0 8.863 8.863h22.274a8.863 8.863 0 0 0 8.863-8.863v-22.274a8.863 8.863 0 0 0-8.863-8.863z" fill="url(#7gf0pys8xb)"/>
<path d="m23.281 12.946a2.657 2.657 0 0 0-0.781-5.196 2.656 2.656 0 0 0-0.781 5.196v2.403a14.317 14.317 0 0 0-8.785 3.624c-2.681 2.451-3.637 5.824-3.637 9.324 0 4.772 1.97 9.488 7.032 10.953 1.995 0.4 4.058 0.61 6.171 0.61s4.176-0.21 6.171-0.61c5.061-1.465 7.032-6.18 7.032-10.953 0-3.5-0.956-6.873-3.637-9.324a14.318 14.318 0 0 0-8.785-3.624z" clip-rule="evenodd" fill="#022047" fill-rule="evenodd"/>
<path d="m22.5 7.75a2.656 2.656 0 0 0-0.781 5.196v2.403h-3e-3a14.317 14.317 0 0 0-8.782 3.624c-2.681 2.451-3.637 5.824-3.637 9.324 0 4.772 1.97 9.488 7.032 10.953 0.96 0.193 1.937 0.34 2.927 0.443-3.637-0.779-6.51-3.67-7.312-7.297l-0.018-0.046c-0.223-0.584-0.364-1.193-0.364-1.788a5.471 5.471 0 0 1 3.7-5.176c0.855-0.292 1.808-0.37 2.707-0.37 0.751 0 1.502 0.039 2.256 0.078l0.141 7e-3c0.34 0.017 0.679 0.034 1.019 0.047-3.321-0.243-5.916-2.343-5.916-4.898 0-2.099 1.752-3.891 4.219-4.599 0 0 0.666-0.158 1.093-0.206 0.43-0.047 1.1-0.037 1.1-0.037 0.52-0.255 0.982-1.223 1.244-2.424-1.167-0.371-2.031-1.444-2.031-2.734 0-1.067 0.546-2 1.406-2.5z" fill="url(#ervf3aoc7c)"/>
<path d="m25.156 10.406c0 1.195-0.79 2.206-1.875 2.54v2.403a14.317 14.317 0 0 1 8.785 3.624c2.68 2.451 3.637 5.824 3.637 9.324 0 4.772-1.971 9.488-7.032 10.953a31.633 31.633 0 0 1-9.415 0.443c-3.638-0.779-6.51-3.67-7.313-7.297a8.22 8.22 0 0 0 0.982 1.779 7.673 7.673 0 0 0 3.842 2.81c1.814 0.59 3.86 0.609 5.733 0.609s3.919-0.019 5.733-0.61a7.672 7.672 0 0 0 3.841-2.81c0.726-1.006 1.363-2.344 1.363-3.611a5.471 5.471 0 0 0-3.7-5.177c-0.854-0.292-1.807-0.37-2.706-0.37-0.751 0-1.503 0.039-2.256 0.078-0.756 0.039-1.514 0.078-2.275 0.078-0.373 0-0.744-0.01-1.115-0.024-3.321-0.243-5.917-2.343-5.917-4.898 0-2.099 1.752-3.891 4.22-4.599 0 0 0.666-0.158 1.093-0.206 0.429-0.047 1.1-0.037 1.1-0.037 0.52-0.255 0.982-1.223 1.244-2.424-1.167-0.371-2.032-1.444-2.032-2.734 0-1.067 0.547-2 1.407-2.5a2.656 2.656 0 0 1 2.656 2.656zm-1.218 6.464c-0.49 0.32-0.813 0.874-0.813 1.502 0 2.323 3.794 2.543 5.4 2.42 2.032-0.158 4.335 1e-3 5.928 1.411a10.4 10.4 0 0 0-2.392-3.233 14.404 14.404 0 0 0-4.067-2.554 5.076 5.076 0 0 0-1.512-0.229c-0.86 0-1.813 0.205-2.544 0.683z" clip-rule="evenodd" fill="url(#xnufxgertd)" fill-rule="evenodd"/>
<path d="m21.718 15.35h-2e-3l2e-3 -1e-3z" fill="url(#xnufxgertd)"/>
<path d="m23.125 18.372c0-0.628 0.324-1.182 0.814-1.502 0.73-0.478 1.684-0.683 2.544-0.683 0.526 0 1.034 0.08 1.511 0.23a14.329 14.329 0 0 1 4.067 2.553 10.392 10.392 0 0 1 2.392 3.233c-1.592-1.41-3.896-1.569-5.929-1.412-1.605 0.124-5.399-0.096-5.399-2.419z" fill="#fff"/>
<path d="m14.063 28.922c0.886 3.91 2.792 4.297 4.347 4.297 0.745 0 1.446-0.269 2.059-0.604l-6.407-3.693z" fill="url(#g3wsk8a9qf)"/>
<path d="m30.938 28.922c-0.887 3.91-2.793 4.297-4.348 4.297-0.745 0-1.446-0.269-2.059-0.604z" fill="url(#y58b36rxlg)"/>
</g>
<defs>
<linearGradient id="7gf0pys8xb" x1="2.101" x2="2.101" y1="3.201" y2="44" gradientUnits="userSpaceOnUse">
<stop stop-color="#253659" offset="0"/>
<stop stop-color="#102131" offset="1"/>
</linearGradient>
<linearGradient id="xnufxgertd" x1="31.591" x2="15.617" y1="18.688" y2="36.253" gradientUnits="userSpaceOnUse">
<stop stop-color="#EEF2F7" offset="0"/>
<stop stop-color="#A3B1D3" offset="1"/>
</linearGradient>
<linearGradient id="g3wsk8a9qf" x1="17.266" x2="17.266" y1="28.922" y2="33.141" gradientUnits="userSpaceOnUse">
<stop stop-color="#00FFC6" offset="0"/>
<stop stop-color="#00BAE9" offset="1"/>
</linearGradient>
<linearGradient id="y58b36rxlg" x1="27.734" x2="27.734" y1="28.922" y2="33.141" gradientUnits="userSpaceOnUse">
<stop stop-color="#00FFC6" offset="0"/>
<stop stop-color="#00BAE9" offset="1"/>
</linearGradient>
<radialGradient id="ervf3aoc7c" cx="0" cy="0" r="1" gradientTransform="matrix(-8.3823 4.7696 -8.5637 -15.05 17.679 23.254)" gradientUnits="userSpaceOnUse">
<stop stop-color="#192A42" offset="0"/>
<stop stop-color="#62728F" offset="1"/>
</radialGradient>
<clipPath id="fahpw200aa">
<path transform="translate(.5)" d="m0 0h193v48h-193z" fill="#fff"/>
</clipPath>
</defs>
</svg>
